<svg width="261" height="260" viewBox="0 0 261 260" fill="none" xmlns="http://www.w3.org/2000/svg">
<path d="M213.584 47.0039H48.2697C43.9797 47.0039 40.4697 50.5139 40.4697 54.8039V148.784H221.384V54.8039C221.384 50.5139 217.874 47.0039 213.584 47.0039ZM93.3197 56.8571H98.2969C100.084 56.8571 101.547 58.3196 101.547 60.1071C101.547 61.8946 100.084 63.3571 98.2969 63.3571H93.3197C91.5322 63.3571 90.0697 61.8946 90.0697 60.1071C90.0697 58.3196 91.5322 56.8571 93.3197 56.8571ZM112.109 81.1965C113.897 81.1965 115.359 82.659 115.359 84.4465C115.359 86.234 113.897 87.6965 112.109 87.6965H82.6922C80.9047 87.6965 79.4422 86.234 79.4422 84.4465C79.4422 82.659 80.9047 81.1965 82.6922 81.1965H112.109ZM97.4006 98.506C97.4006 100.294 95.9381 101.756 94.1506 101.756H82.6919C80.9044 101.756 79.4419 100.294 79.4419 98.506C79.4419 96.7185 80.9044 95.256 82.6919 95.256H94.1506C95.9381 95.256 97.4006 96.7185 97.4006 98.506ZM73.8197 56.8571H78.7969C80.5844 56.8571 82.0469 58.3196 82.0469 60.1071C82.0469 61.8946 80.5844 63.3571 78.7969 63.3571H73.8197C72.0322 63.3571 70.5697 61.8946 70.5697 60.1071C70.5697 58.3196 72.0322 56.8571 73.8197 56.8571ZM70.8622 84.4465C70.8622 86.234 69.3997 87.6965 67.6122 87.6965H54.6122C52.8247 87.6965 51.3622 86.234 51.3622 84.4465C51.3622 82.659 52.8247 81.1965 54.6122 81.1965H67.6122C69.3997 81.1965 70.8622 82.659 70.8622 84.4465ZM70.8622 98.506C70.8622 100.294 69.3997 101.756 67.6122 101.756H63.2293C61.4418 101.756 59.9793 100.294 59.9793 98.506C59.9793 96.7185 61.4418 95.256 63.2293 95.256H67.6122C69.3997 95.256 70.8622 96.7185 70.8622 98.506ZM54.3197 56.8571H59.2968C61.0843 56.8571 62.5468 58.3196 62.5468 60.1071C62.5468 61.8946 61.0843 63.3571 59.2968 63.3571H54.3197C52.5322 63.3571 51.0697 61.8946 51.0697 60.1071C51.0697 58.3196 52.5322 56.8571 54.3197 56.8571ZM51.3622 112.566C51.3622 110.778 52.8247 109.316 54.6122 109.316H85.1715C86.959 109.316 88.4215 110.778 88.4215 112.566C88.4215 114.353 86.959 115.816 85.1715 115.816H54.6122C52.8247 115.816 51.3622 114.353 51.3622 112.566ZM67.6122 129.875H63.2293C61.4418 129.875 59.9793 128.413 59.9793 126.625C59.9793 124.838 61.4418 123.375 63.2293 123.375H67.6122C69.3997 123.375 70.8622 124.838 70.8622 126.625C70.8622 128.413 69.3997 129.875 67.6122 129.875ZM94.1506 129.875H82.6919C80.9044 129.875 79.4419 128.413 79.4419 126.625C79.4419 124.838 80.9044 123.375 82.6919 123.375H94.1506C95.9381 123.375 97.4006 124.838 97.4006 126.625C97.4006 128.413 95.9381 129.875 94.1506 129.875ZM131.349 129.875H110.271C108.483 129.875 107.021 128.413 107.021 126.625C107.021 124.838 108.483 123.375 110.271 123.375H131.349C133.137 123.375 134.599 124.838 134.599 126.625C134.599 128.413 133.137 129.875 131.349 129.875ZM131.349 115.816H100.651C98.8631 115.816 97.4006 114.353 97.4006 112.566C97.4006 110.778 98.8631 109.316 100.651 109.316H131.349C133.137 109.316 134.599 110.778 134.599 112.566C134.599 114.353 133.137 115.816 131.349 115.816ZM131.349 101.756H109.63C107.842 101.756 106.38 100.294 106.38 98.506C106.38 96.7185 107.842 95.256 109.63 95.256H131.349C133.137 95.256 134.599 96.7185 134.599 98.506C134.599 100.294 133.137 101.756 131.349 101.756ZM163.396 115.075C164.66 116.339 164.66 118.407 163.396 119.671C162.132 120.935 160.064 120.935 158.8 119.671L146.743 107.614C145.479 106.35 145.479 104.282 146.743 103.018L158.8 90.9605C160.064 89.6967 162.132 89.6967 163.396 90.9605C164.66 92.2244 164.66 94.2927 163.396 95.5568L153.637 105.316L163.396 115.075ZM186.845 86.5483L175.694 125.857C175.207 127.577 173.4 128.585 171.681 128.097C169.961 127.609 168.953 125.803 169.441 124.084L180.592 84.7744C181.08 83.0547 182.886 82.047 184.606 82.5347C186.325 83.0225 187.333 84.8287 186.845 86.5483ZM209.544 107.614L197.487 119.671C196.223 120.935 194.154 120.935 192.89 119.671C191.626 118.407 191.626 116.339 192.89 115.075L202.649 105.316L192.89 95.5568C191.626 94.293 191.626 92.2247 192.89 90.9605C194.154 89.6967 196.222 89.6967 197.487 90.9605L209.544 103.018C210.807 104.282 210.807 106.35 209.544 107.614Z" fill="#231F20"/>
<path d="M159.652 198.136H102.202C99.5508 198.136 97.3818 200.306 97.3818 202.957V212.996H164.472V202.957C164.472 200.306 162.303 198.136 159.652 198.136Z" fill="#231F20"/>
<path d="M131.317 177.916C133.817 177.739 135.699 175.568 135.522 173.068C135.344 170.568 133.173 168.685 130.673 168.863C128.174 169.041 126.291 171.211 126.469 173.711C126.646 176.211 128.817 178.094 131.317 177.916Z" fill="#231F20"/>
<path d="M40.4038 155.615L40.4633 171.861C40.4792 176.151 44.002 179.648 48.292 179.632L75.0488 179.534L75.0764 187.021C75.086 189.672 77.2632 191.833 79.9142 191.823L182.073 191.449C184.724 191.44 186.885 189.263 186.876 186.611L186.848 179.125L213.605 179.027C217.895 179.011 221.392 175.488 221.377 171.198L221.317 154.952L40.4038 155.615ZM142.102 174.222C142.102 175.186 141.32 175.966 140.357 175.966C140.265 175.966 140.175 175.957 140.086 175.943C139.861 176.746 139.533 177.504 139.116 178.205C139.178 178.252 139.237 178.301 139.293 178.357C139.974 179.038 139.974 180.143 139.293 180.824L138.223 181.894C137.542 182.575 136.438 182.575 135.756 181.894C135.682 181.819 135.618 181.739 135.559 181.656C134.903 182.019 134.198 182.307 133.458 182.507C133.48 182.619 133.492 182.735 133.492 182.855C133.492 183.818 132.711 184.599 131.748 184.599H130.235C129.272 184.599 128.491 183.818 128.491 182.855C128.491 182.735 128.503 182.619 128.526 182.507C127.734 182.293 126.983 181.98 126.288 181.58C126.217 181.697 126.133 181.809 126.031 181.91C125.35 182.591 124.246 182.591 123.565 181.91L122.495 180.84C121.814 180.159 121.814 179.055 122.495 178.373C122.594 178.274 122.703 178.191 122.817 178.121C122.417 177.432 122.102 176.688 121.886 175.902C121.739 175.943 121.584 175.966 121.423 175.966C120.46 175.966 119.679 175.185 119.679 174.222V172.709C119.679 171.746 120.46 170.965 121.423 170.965C121.57 170.965 121.711 170.985 121.846 171.019C122.05 170.23 122.353 169.482 122.742 168.788C122.608 168.712 122.482 168.619 122.368 168.505C121.687 167.824 121.687 166.719 122.368 166.038L123.438 164.968C124.119 164.287 125.224 164.287 125.905 164.968C126 165.064 126.081 165.168 126.149 165.278C126.883 164.839 127.681 164.496 128.526 164.268C128.503 164.156 128.491 164.04 128.491 163.92C128.491 162.957 129.272 162.176 130.235 162.176H131.748C132.712 162.176 133.492 162.957 133.492 163.92C133.492 164.039 133.48 164.156 133.458 164.268C134.252 164.483 135.006 164.798 135.703 165.2C135.757 165.125 135.816 165.052 135.883 164.985C136.565 164.304 137.669 164.304 138.35 164.985L139.42 166.055C140.101 166.736 140.101 167.84 139.42 168.521C139.35 168.591 139.275 168.652 139.197 168.707C139.601 169.413 139.916 170.176 140.127 170.982C140.203 170.972 140.279 170.965 140.358 170.965C141.321 170.965 142.102 171.746 142.102 172.709L142.102 174.222Z" fill="#231F20"/>
</svg>
