<svg width="261" height="260" viewBox="0 0 261 260" fill="none" xmlns="http://www.w3.org/2000/svg">
<g filter="url(#filter0_d_32_66)">
<path d="M40.4741 158.46C40.4741 162.768 43.9664 166.26 48.2741 166.26H105.154V167.96C105.154 170.191 106.108 172.31 107.775 173.792C110.799 176.483 115.38 181.92 115.554 190.255C115.606 192.707 115.585 194.818 115.523 196.625H146.265C146.203 194.818 146.182 192.707 146.234 190.255C146.408 181.92 150.989 176.483 154.013 173.792C155.68 172.31 156.634 170.191 156.634 167.96V166.26H213.514C217.822 166.26 221.314 162.768 221.314 158.46V151.98H40.4741V158.46Z" fill="#231F20"/>
<path d="M166.463 203.125H95.3253C87.5325 203.125 81.2153 209.442 81.2153 217.235C81.2153 219.03 82.6706 220.485 84.4653 220.485H177.323C179.118 220.485 180.573 219.03 180.573 217.235C180.573 209.442 174.256 203.125 166.463 203.125Z" fill="#231F20"/>
<path d="M202.251 74.1165H167.117V91.4663H202.251V74.1165Z" fill="#231F20"/>
<path d="M148.46 74.1165H113.329V91.4663H148.46V74.1165Z" fill="#231F20"/>
<path d="M94.6709 74.1165H59.5371V91.4663H94.6709V74.1165Z" fill="#231F20"/>
<path d="M213.514 39.5154H48.2741C43.9664 39.5154 40.4741 43.0074 40.4741 47.3154V145.48H221.314V47.3154C221.314 43.0074 217.822 39.5154 213.514 39.5154ZM199.365 50.3852H205.5C207.295 50.3852 208.75 51.8402 208.75 53.6352C208.75 55.4302 207.295 56.8852 205.5 56.8852H199.365C197.571 56.8852 196.115 55.4302 196.115 53.6352C196.115 51.8402 197.571 50.3852 199.365 50.3852ZM130.128 50.3852H136.263C138.058 50.3852 139.513 51.8402 139.513 53.6352C139.513 55.4302 138.058 56.8852 136.263 56.8852H130.128C128.333 56.8852 126.878 55.4302 126.878 53.6352C126.878 51.8402 128.333 50.3852 130.128 50.3852ZM111.668 50.3852H117.803C119.598 50.3852 121.053 51.8402 121.053 53.6352C121.053 55.4302 119.598 56.8852 117.803 56.8852H111.668C109.873 56.8852 108.418 55.4302 108.418 53.6352C108.418 51.8402 109.873 50.3852 111.668 50.3852ZM106.828 70.7364C106.828 69.0126 108.225 67.6164 109.948 67.6164H151.84C153.563 67.6164 154.96 69.0126 154.96 70.7364V94.8462C154.96 96.5674 153.563 97.9662 151.84 97.9662H109.948C108.225 97.9662 106.828 96.5674 106.828 94.8462V70.7364ZM74.7478 50.3852H80.8828C82.6776 50.3852 84.1328 51.8402 84.1328 53.6352C84.1328 55.4302 82.6776 56.8852 80.8828 56.8852H74.7478C72.9531 56.8852 71.4978 55.4302 71.4978 53.6352C71.4978 51.8402 72.9528 50.3852 74.7478 50.3852ZM56.2878 50.3852H62.4228C64.2176 50.3852 65.6728 51.8402 65.6728 53.6352C65.6728 55.4302 64.2176 56.8852 62.4228 56.8852H56.2878C54.4931 56.8852 53.0378 55.4302 53.0378 53.6352C53.0378 51.8402 54.4928 50.3852 56.2878 50.3852ZM101.17 131.36C101.17 133.155 99.7151 134.61 97.9201 134.61H56.2878C54.4931 134.61 53.0378 133.155 53.0378 131.36V120.715C53.0378 118.92 54.4931 117.465 56.2878 117.465H97.9201C99.7151 117.465 101.17 118.92 101.17 120.715V131.36ZM97.9201 110.965H56.2878C54.4931 110.965 53.0378 109.51 53.0378 107.715C53.0378 105.92 54.4931 104.465 56.2878 104.465H97.9201C99.7151 104.465 101.17 105.92 101.17 107.715C101.17 109.51 99.7151 110.965 97.9201 110.965ZM101.171 94.8462C101.171 96.5674 99.7721 97.9662 98.0509 97.9662H56.1571C54.4359 97.9662 53.0371 96.5674 53.0371 94.8462V70.7364C53.0371 69.0126 54.4359 67.6164 56.1571 67.6164H98.0509C99.7721 67.6164 101.171 69.0126 101.171 70.7364V94.8462ZM99.3428 56.8852H93.2078C91.4131 56.8852 89.9578 55.4302 89.9578 53.6352C89.9578 51.8402 91.4131 50.3852 93.2078 50.3852H99.3428C101.138 50.3852 102.593 51.8402 102.593 53.6352C102.593 55.4302 101.138 56.8852 99.3428 56.8852ZM154.96 131.36C154.96 133.155 153.505 134.61 151.71 134.61H110.078C108.283 134.61 106.828 133.155 106.828 131.36V120.715C106.828 118.92 108.283 117.465 110.078 117.465H151.71C153.505 117.465 154.96 118.92 154.96 120.715V131.36ZM151.71 110.965H110.078C108.283 110.965 106.828 109.51 106.828 107.715C106.828 105.92 108.283 104.465 110.078 104.465H151.71C153.505 104.465 154.96 105.92 154.96 107.715C154.96 109.51 153.505 110.965 151.71 110.965ZM208.75 131.36C208.75 133.155 207.295 134.61 205.5 134.61H163.868C162.073 134.61 160.618 133.155 160.618 131.36V120.715C160.618 118.92 162.073 117.465 163.868 117.465H205.501C207.295 117.465 208.751 118.92 208.751 120.715L208.75 131.36ZM205.5 110.965H163.868C162.073 110.965 160.618 109.51 160.618 107.715C160.618 105.92 162.073 104.465 163.868 104.465H205.501C207.295 104.465 208.751 105.92 208.751 107.715C208.75 109.51 207.295 110.965 205.5 110.965ZM208.751 94.8462C208.751 96.5674 207.352 97.9662 205.631 97.9662H163.737C162.016 97.9662 160.617 96.5674 160.617 94.8462V70.7364C160.617 69.0126 162.016 67.6164 163.737 67.6164H205.631C207.352 67.6164 208.751 69.0126 208.751 70.7364V94.8462Z" fill="#231F20"/>
</g>
<defs>
<filter id="filter0_d_32_66" x="-3.10596" y="0" width="268" height="268" filterUnits="userSpaceOnUse" color-interpolation-filters="sRGB">
<feFlood flood-opacity="0" result="BackgroundImageFix"/>
<feColorMatrix in="SourceAlpha" type="matrix" values="0 0 0 0 0 0 0 0 0 0 0 0 0 0 0 0 0 0 127 0" result="hardAlpha"/>
<feOffset dy="4"/>
<feGaussianBlur stdDeviation="2"/>
<feComposite in2="hardAlpha" operator="out"/>
<feColorMatrix type="matrix" values="0 0 0 0 0 0 0 0 0 0 0 0 0 0 0 0 0 0 0.25 0"/>
<feBlend mode="normal" in2="BackgroundImageFix" result="effect1_dropShadow_32_66"/>
<feBlend mode="normal" in="SourceGraphic" in2="effect1_dropShadow_32_66" result="shape"/>
</filter>
</defs>
</svg>
