<svg width="1762" height="1620" viewBox="0 0 1762 1620" fill="none" xmlns="http://www.w3.org/2000/svg">
<ellipse cx="880.71" cy="810" rx="880.71" ry="810" fill="#D9D9D9"/>
<path d="M513.034 980V616.364H635.903C664.431 616.364 687.75 621.513 705.861 631.811C724.09 641.991 737.584 655.781 746.344 673.182C755.103 690.582 759.483 709.995 759.483 731.42C759.483 752.846 755.103 772.318 746.344 789.837C737.703 807.356 724.327 821.323 706.216 831.74C688.105 842.038 664.904 847.188 636.614 847.188H548.545V808.125H635.193C654.724 808.125 670.409 804.751 682.246 798.004C694.083 791.257 702.665 782.143 707.991 770.661C713.437 759.06 716.159 745.98 716.159 731.42C716.159 716.861 713.437 703.84 707.991 692.358C702.665 680.876 694.024 671.88 682.068 665.369C670.113 658.741 654.251 655.426 634.483 655.426H557.068V980H513.034ZM953.286 599.318L836.099 1034.69H797.746L914.934 599.318H953.286ZM1120.86 980H1008.64V616.364H1125.83C1161.1 616.364 1191.29 623.643 1216.38 638.203C1241.48 652.644 1260.71 673.419 1274.09 700.526C1287.46 727.514 1294.15 759.83 1294.15 797.472C1294.15 835.35 1287.4 867.962 1273.91 895.305C1260.42 922.531 1240.77 943.482 1214.96 958.161C1189.16 972.72 1157.79 980 1120.86 980ZM1052.67 940.938H1118.01C1148.08 940.938 1173 935.137 1192.77 923.537C1212.53 911.937 1227.27 895.424 1236.98 873.999C1246.68 852.573 1251.54 827.064 1251.54 797.472C1251.54 768.116 1246.74 742.843 1237.16 721.655C1227.57 700.348 1213.24 684.013 1194.19 672.649C1175.13 661.167 1151.4 655.426 1122.99 655.426H1052.67V940.938Z" fill="#111010"/>
</svg>
