<svg width="1762" height="1620" viewBox="0 0 1762 1620" fill="none" xmlns="http://www.w3.org/2000/svg">
<ellipse cx="880.71" cy="810" rx="880.71" ry="810" fill="#D9D9D9"/>
<path d="M336.125 1005V568.636H524.477C556.864 568.636 585.202 575.028 609.491 587.812C633.781 600.597 652.673 618.565 666.168 641.719C679.662 664.872 686.409 691.932 686.409 722.898C686.409 754.148 679.449 781.207 665.528 804.077C651.75 826.946 632.361 844.56 607.361 856.918C582.503 869.276 553.455 875.455 520.216 875.455H407.716V783.409H496.352C510.273 783.409 522.134 780.994 531.935 776.165C541.878 771.193 549.477 764.162 554.733 755.071C560.131 745.98 562.83 735.256 562.83 722.898C562.83 710.398 560.131 699.744 554.733 690.938C549.477 681.989 541.878 675.17 531.935 670.483C522.134 665.653 510.273 663.239 496.352 663.239H454.591V1005H336.125ZM945.5 548.182L804.875 1070.62H705.159L845.784 548.182H945.5ZM1145.04 1005H977.141V568.636H1143.33C1188.22 568.636 1227 577.372 1259.67 594.844C1292.48 612.173 1317.77 637.173 1335.52 669.844C1353.42 702.372 1362.37 741.364 1362.37 786.818C1362.37 832.273 1353.49 871.335 1335.73 904.006C1317.98 936.534 1292.84 961.534 1260.31 979.006C1227.78 996.335 1189.36 1005 1145.04 1005ZM1095.61 904.432H1140.78C1162.37 904.432 1180.76 900.952 1195.96 893.991C1211.3 887.031 1222.95 875.028 1230.9 857.983C1239 840.937 1243.05 817.216 1243.05 786.818C1243.05 756.42 1238.93 732.699 1230.69 715.653C1222.6 698.608 1210.66 686.605 1194.9 679.645C1179.27 672.685 1160.1 669.205 1137.37 669.205H1095.61V904.432Z" fill="#111010"/>
</svg>
