<svg width="228" height="229" viewBox="0 0 228 229" fill="none" xmlns="http://www.w3.org/2000/svg">
<path d="M129.545 221.193H119.182V200.375H82.9091V221.193H72.5455C71.8583 221.193 71.1993 221.467 70.7134 221.955C70.2276 222.443 69.9546 223.105 69.9546 223.795C69.9546 224.486 70.2276 225.148 70.7134 225.636C71.1993 226.124 71.8583 226.398 72.5455 226.398H129.545C130.233 226.398 130.892 226.124 131.378 225.636C131.863 225.148 132.136 224.486 132.136 223.795C132.136 223.105 131.863 222.443 131.378 221.955C130.892 221.467 130.233 221.193 129.545 221.193Z" fill="black"/>
<path d="M5.18164 176.955C5.18692 181.784 7.09941 186.414 10.4995 189.829C13.8996 193.244 18.5096 195.165 23.318 195.17H160.636V174.352H5.18164V176.955ZM93.2726 182.159H108.818C109.505 182.159 110.164 182.433 110.65 182.921C111.136 183.409 111.409 184.071 111.409 184.761C111.409 185.452 111.136 186.113 110.65 186.601C110.164 187.089 109.505 187.364 108.818 187.364H93.2726C92.5854 187.364 91.9264 187.089 91.4405 186.601C90.9546 186.113 90.6816 185.452 90.6816 184.761C90.6816 184.071 90.9546 183.409 91.4405 182.921C91.9264 182.433 92.5854 182.159 93.2726 182.159Z" fill="black"/>
<path d="M85.3444 101.489L83.0385 108.463C82.909 108.854 82.8743 109.271 82.9374 109.678C83.0005 110.085 83.1595 110.472 83.4012 110.805C83.637 111.144 83.9511 111.421 84.3166 111.611C84.6821 111.801 85.0881 111.9 85.4999 111.898H116.591C117.002 111.9 117.409 111.801 117.774 111.611C118.14 111.421 118.454 111.144 118.689 110.805C118.931 110.472 119.09 110.085 119.153 109.678C119.216 109.271 119.182 108.854 119.052 108.463L116.746 101.489H85.3444Z" fill="black"/>
<path d="M194.318 179.557C195.005 179.556 195.663 179.281 196.149 178.794C196.635 178.306 196.908 177.644 196.909 176.955V171.75C196.909 171.06 196.636 170.398 196.15 169.91C195.664 169.422 195.005 169.148 194.318 169.148C193.631 169.148 192.972 169.422 192.486 169.91C192 170.398 191.727 171.06 191.727 171.75V176.955C191.728 177.644 192.001 178.306 192.487 178.794C192.973 179.281 193.631 179.556 194.318 179.557Z" fill="black"/>
<path d="M202.091 143.125H196.909V164.423C198.42 164.957 199.729 165.949 200.657 167.261C201.585 168.573 202.086 170.141 202.091 171.75H222.818V163.943C222.811 158.424 220.626 153.132 216.74 149.23C212.854 145.327 207.586 143.131 202.091 143.125Z" fill="black"/>
<path d="M196.909 184.282V189.966C196.909 190.656 196.636 191.318 196.15 191.806C195.664 192.294 195.005 192.568 194.318 192.568C193.631 192.568 192.972 192.294 192.486 191.806C192 191.318 191.727 190.656 191.727 189.966V184.282C190.216 183.747 188.906 182.756 187.979 181.444C187.051 180.132 186.55 178.564 186.545 176.955H165.818V197.773C165.818 205.365 168.821 212.645 174.165 218.014C179.51 223.382 186.759 226.398 194.318 226.398C201.877 226.398 209.126 223.382 214.47 218.014C219.815 212.645 222.818 205.365 222.818 197.773V176.955H202.091C202.086 178.564 201.585 180.132 200.657 181.444C199.729 182.756 198.42 183.747 196.909 184.282Z" fill="black"/>
<path d="M119.182 80.6704H82.9088C81.4779 80.6704 80.3179 81.8355 80.3179 83.2727V93.6818C80.3179 95.119 81.4779 96.284 82.9088 96.284H119.182C120.612 96.284 121.772 95.119 121.772 93.6818V83.2727C121.772 81.8355 120.612 80.6704 119.182 80.6704Z" fill="black"/>
<path d="M101.045 62.4545C102.476 62.4545 103.636 61.2895 103.636 59.8523C103.636 58.4151 102.476 57.25 101.045 57.25C99.6146 57.25 98.4546 58.4151 98.4546 59.8523C98.4546 61.2895 99.6146 62.4545 101.045 62.4545Z" fill="black"/>
<path d="M49.2271 18.2159C50.8293 18.211 52.3907 17.7081 53.6969 16.7762C55.0031 15.8443 55.9901 14.5292 56.5223 13.0114H74.9512C66.917 17.6555 60.8106 25.0433 57.7442 33.8296H54.4089C53.7218 33.8296 53.0628 34.1038 52.5769 34.5918C52.091 35.0798 51.818 35.7417 51.818 36.4319V46.8409C51.818 47.5311 52.091 48.193 52.5769 48.681C53.0628 49.1691 53.7218 49.4432 54.4089 49.4432H64.7726C65.4597 49.4432 66.1187 49.1691 66.6046 48.681C67.0905 48.193 67.3635 47.5311 67.3635 46.8409V36.4319C67.3635 35.7417 67.0905 35.0798 66.6046 34.5918C66.1187 34.1038 65.4597 33.8296 64.7726 33.8296H63.2856C65.7542 27.8293 69.8992 22.6751 75.2204 18.9891C80.5415 15.3031 86.8113 13.243 93.2726 13.0575V15.6137C93.2726 16.3038 93.5455 16.9657 94.0314 17.4538C94.5173 17.9418 95.1763 18.2159 95.8635 18.2159H106.227C106.914 18.2159 107.573 17.9418 108.059 17.4538C108.545 16.9657 108.818 16.3038 108.818 15.6137V13.0575C115.279 13.243 121.549 15.3031 126.87 18.9891C132.191 22.6751 136.336 27.8293 138.805 33.8296H137.318C136.631 33.8296 135.972 34.1038 135.486 34.5918C135 35.0798 134.727 35.7417 134.727 36.4319V46.8409C134.727 47.5311 135 48.193 135.486 48.681C135.972 49.1691 136.631 49.4432 137.318 49.4432H147.682C148.369 49.4432 149.028 49.1691 149.514 48.681C150 48.193 150.273 47.5311 150.273 46.8409V36.4319C150.273 35.7417 150 35.0798 149.514 34.5918C149.028 34.1038 148.369 33.8296 147.682 33.8296H144.346C141.28 25.0433 135.174 17.6555 127.139 13.0114H145.568C146.179 14.7477 147.382 16.211 148.964 17.1429C150.545 18.0747 152.404 18.4149 154.211 18.1035C156.018 17.7921 157.657 16.849 158.839 15.441C160.021 14.033 160.669 12.2507 160.669 10.4091C160.669 8.56753 160.021 6.78523 158.839 5.37722C157.657 3.96921 156.018 3.02616 154.211 2.71474C152.404 2.40332 150.545 2.74359 148.964 3.67541C147.382 4.60722 146.179 6.07058 145.568 7.80686H108.818V5.20458C108.818 4.51442 108.545 3.85252 108.059 3.3645C107.573 2.87648 106.914 2.60231 106.227 2.60231H95.8635C95.1763 2.60231 94.5173 2.87648 94.0314 3.3645C93.5455 3.85252 93.2726 4.51442 93.2726 5.20458V7.80686H56.5223C56.0449 6.46129 55.2084 5.27341 54.1043 4.373C53.0002 3.4726 51.671 2.89432 50.2618 2.70135C48.8526 2.50837 47.4177 2.70813 46.1139 3.27879C44.8101 3.84946 43.6875 4.76907 42.8689 5.93715C42.0502 7.10524 41.567 8.47685 41.4719 9.90211C41.3769 11.3274 41.6737 12.7515 42.3299 14.0188C42.9862 15.2861 43.9766 16.3478 45.193 17.0881C46.4094 17.8283 47.8049 18.2184 49.2271 18.2159Z" fill="black"/>
<path d="M124.053 63.8338L103.636 25.3853V52.5251C105.365 53.139 106.822 54.3469 107.75 55.9354C108.677 57.5238 109.016 59.3905 108.706 61.2056C108.396 63.0207 107.457 64.6672 106.055 65.8543C104.653 67.0413 102.879 67.6923 101.045 67.6923C99.2118 67.6923 97.4373 67.0413 96.0354 65.8543C94.6336 64.6672 93.6946 63.0207 93.3846 61.2056C93.0745 59.3905 93.4133 57.5238 94.3411 55.9354C95.2688 54.3469 96.7258 53.139 98.4545 52.5251V25.3853L78.0381 63.8338C77.8116 64.2609 77.7085 64.7432 77.7406 65.226C77.7726 65.7089 77.9385 66.1731 78.2195 66.5662L84.5413 75.466H117.549L123.871 66.5662C124.152 66.1731 124.318 65.7089 124.35 65.226C124.382 64.7432 124.279 64.2609 124.053 63.8338Z" fill="black"/>
<path d="M181.363 138.441V132.716H106.227C104.167 132.71 102.194 131.886 100.738 130.423C99.2812 128.96 98.4603 126.978 98.4543 124.909V117.102H85.4998C84.2694 117.097 83.0578 116.799 81.9637 116.234C80.8696 115.669 79.924 114.852 79.2041 113.85C78.4842 112.848 78.0103 111.689 77.8212 110.468C77.632 109.247 77.7329 107.998 78.1157 106.823L80.0848 100.916C78.6295 100.353 77.378 99.3602 76.4947 98.069C75.6115 96.7778 75.1379 95.2485 75.1361 93.6819V83.2728C75.1404 81.9188 75.4934 80.589 76.1608 79.4125C76.8282 78.2361 77.7873 77.253 78.9448 76.559L74.4884 70.2615H23.318C22.6314 70.2635 21.9736 70.5383 21.4881 71.0259C21.0026 71.5135 20.729 72.1742 20.7271 72.8637V153.534H162.813C164.48 149.713 167.034 146.349 170.261 143.723C173.489 141.097 177.296 139.286 181.363 138.441Z" fill="black"/>
<path d="M15.5453 156.136V72.8636C15.5513 70.795 16.3721 68.8128 17.8285 67.35C19.2849 65.8873 21.2584 65.0628 23.318 65.0568H72.5194C72.5211 63.7748 72.8417 62.5135 73.4521 61.3876L77.0275 54.6477H23.318C18.5096 54.653 13.8996 56.5739 10.4995 59.9889C7.09941 63.4039 5.18692 68.0341 5.18164 72.8636V169.148H160.636V163.943C160.638 162.195 160.811 160.452 161.154 158.739H18.1362C17.4496 158.737 16.7918 158.462 16.3063 157.974C15.8209 157.487 15.5473 156.826 15.5453 156.136Z" fill="black"/>
<path d="M165.818 163.943V171.75H186.545C186.553 170.14 187.055 168.572 187.982 167.259C188.91 165.946 190.217 164.952 191.727 164.412V143.125H186.545C181.05 143.132 175.782 145.328 171.897 149.231C168.011 153.133 165.825 158.424 165.818 163.943Z" fill="black"/>
<path d="M128.638 61.3876C129.249 62.5135 129.569 63.7748 129.571 65.0568H178.773C180.832 65.0628 182.806 65.8873 184.262 67.35C185.718 68.8128 186.539 70.795 186.545 72.8636V117.102H196.909V72.8636C196.904 68.0341 194.991 63.4039 191.591 59.9889C188.191 56.5739 183.581 54.653 178.773 54.6477H125.063L128.638 61.3876Z" fill="black"/>
<path d="M194.318 122.307H181.364V72.8637C181.362 72.1742 181.088 71.5135 180.602 71.0259C180.117 70.5383 179.459 70.2635 178.773 70.2615H127.602L123.146 76.559C124.303 77.253 125.262 78.2361 125.93 79.4125C126.597 80.589 126.95 81.9188 126.954 83.2728V93.6819C126.953 95.2485 126.479 96.7778 125.596 98.069C124.713 99.3602 123.461 100.353 122.006 100.916L123.975 106.823C124.358 107.998 124.459 109.247 124.269 110.468C124.08 111.689 123.606 112.848 122.886 113.85C122.167 114.852 121.221 115.669 120.127 116.234C119.033 116.799 117.821 117.097 116.591 117.102H103.636V124.909C103.638 125.599 103.912 126.259 104.397 126.747C104.883 127.235 105.541 127.509 106.227 127.511H191.727V143.125H196.909V124.909C196.909 124.219 196.636 123.557 196.15 123.069C195.664 122.581 195.005 122.307 194.318 122.307Z" fill="black"/>
</svg>
